<svg width="139" height="21" fill="none" xmlns="http://www.w3.org/2000/svg"><path d="M4.41 5.033.231 12.037a1.624 1.624 0 0 0 1.386 2.457l8.278.045c1.257.007 2.045-1.356 1.413-2.441l-4.101-7.05a1.623 1.623 0 0 0-2.799-.015ZM14.234 13.733l-4.178-7.004a1.624 1.624 0 0 1 1.386-2.457l8.278-.045c1.257-.007 2.045 1.356 1.413 2.441l-4.1 7.05a1.623 1.623 0 0 1-2.8.015Z" fill="#fff"/><path d="M50.299.037H39.982a.806.806 0 0 0-.806.806v1.92c0 .445.36.807.806.807h3.322v11.718c0 .445.361.806.806.806h2.059a.806.806 0 0 0 .806-.806V3.57h3.322a.806.806 0 0 0 .806-.806V.843A.805.805 0 0 0 50.3.037ZM65.288 12.09l-1.703-.988a.784.784 0 0 0-.991.181c-.732.865-1.892 1.362-3.208 1.362-2.742 0-4.51-1.835-4.51-4.598s1.77-4.598 4.51-4.598c1.319 0 2.466.5 3.206 1.368.246.29.659.368.988.177l1.704-.988a.78.78 0 0 0 .213-1.164C64.083 1.083 61.864 0 59.387 0c-4.665 0-8.047 3.493-8.047 8.047s3.382 8.047 8.047 8.047c2.497 0 4.718-1.085 6.117-2.844a.78.78 0 0 0-.216-1.16ZM74.613 7.477H69.21c-.338 0-.612.361-.612.806v1.692c0 .445.274.806.612.806h5.403c.338 0 .613-.36.613-.806V8.283c0-.446-.275-.806-.613-.806ZM35.938 7.844a3.874 3.874 0 0 0 1.747-3.236c0-2.84-1.941-4.603-5.066-4.603h-4.466c-.462 0-1.095 0-1.58.486-.487.486-.487 1.119-.487 1.58v11.956c0 .462 0 1.094.486 1.58.486.487 1.119.487 1.58.487h4.732c3.098 0 5.023-1.807 5.023-4.713 0-2.03-1.116-3.053-1.969-3.537Zm-6.381-4.722h2.82c1.152 0 1.839.604 1.839 1.618 0 1.014-.687 1.618-1.839 1.618h-2.82V3.122Zm3.019 9.854h-3.02V9.497h3.02c1.164 0 1.86.646 1.86 1.73 0 .844-.49 1.749-1.86 1.749ZM108.347 4.01c-1.534 0-2.65.518-3.417 1.392v-.497c0-.368-.207-.574-.574-.574h-2.294c-.367 0-.574.206-.574.574v14.91c0 .367.207.573.574.573h2.294c.367 0 .574-.206.574-.574V14.73c.767.874 1.883 1.392 3.417 1.392 3.006 0 5.482-2.638 5.482-6.056 0-3.417-2.476-6.055-5.482-6.055Zm-.688 8.854c-1.583 0-2.729-1.078-2.729-2.799 0-1.72 1.146-2.798 2.729-2.798 1.583 0 2.73 1.078 2.73 2.798s-1.147 2.799-2.73 2.799ZM88.32.518c-.091-.32-.344-.481-.665-.481h-3.67c-.322 0-.575.16-.666.481l-4.863 14.933c-.137.413.07.642.482.642h2.822c.32 0 .55-.137.641-.482l.603-2.04h5.63l.602 2.04c.093.345.321.482.642.482H92.7c.413 0 .619-.23.481-.642L88.32.518Zm-4.298 9.612 1.797-6.079 1.797 6.079h-3.594ZM97.715.035h-2.31A.565.565 0 0 0 94.84.6v14.927c0 .313.253.566.565.566h2.31a.565.565 0 0 0 .565-.566V.6a.565.565 0 0 0-.565-.565ZM122.253 4.302c-1.514 0-2.661.551-3.28 1.4V.842a.806.806 0 0 0-.806-.807h-1.83a.806.806 0 0 0-.806.806v14.446c0 .445.361.806.806.806h1.83a.806.806 0 0 0 .806-.806V9.83c0-1.629.872-2.362 2.134-2.362 1.101 0 1.996.665 1.996 2.088v5.732c0 .445.361.806.806.806h1.83a.806.806 0 0 0 .806-.806V9.05c-.003-3.096-1.976-4.749-4.292-4.749ZM137.603 5.276c-.923-.834-2.264-1.257-3.986-1.257-.954 0-1.87.125-2.725.37-.427.124-1.005.412-1.481.672a.573.573 0 0 0-.019.996l1.603.952c.051.03.112.034.167.013a5.996 5.996 0 0 1 2.135-.399c.887 0 1.56.2 2 .592.435.39.649.939.653 1.677h-2.759c-1.676 0-2.929.327-3.723.972-.806.656-1.214 1.536-1.214 2.617 0 .691.187 1.32.555 1.87.368.546.894.98 1.565 1.286.664.302 1.446.456 2.323.456s1.64-.139 2.268-.411a3.444 3.444 0 0 0 1.133-.775v.082c0 .527.428.954.954.954h.995a.954.954 0 0 0 .954-.954V9.062c0-1.673-.47-2.946-1.398-3.786Zm-1.656 6.872c-.198.51-.537.909-1.007 1.185-.487.287-1.056.433-1.687.433-.639 0-1.14-.132-1.489-.39a1.17 1.17 0 0 1-.5-1.001c0-.328 0-1.326 2.118-1.326h2.566v1.099h-.001Z" fill="#E9E9E9"/></svg>